# xmcd
#
# Track frame offsets: 
#        150
#        17362
#        34049
#        51336
#        64723
#        82535
#        98997
#        112909
#        128996
#        142608
#        156445
#        170957
#        185994
#        201781
#        221018
#        237705
#        251092
#        268229
#
# Disc length: 3791 seconds
#
# Revision: 2
# Processed by: cddbd v1.5.2PL0 Copyright (c) Steve Scherf et al.
# Submitted via: ExactAudioCopy v0.99pb4
#
DISCID=070ecd12
DTITLE=Various Artist - Promo Courntry June 2009
DYEAR=2009
DGENRE=Country
TTITLE0=Taylor Swift - You Belong With Me
TTITLE1=Miranda Lambert - Dead Flowers
TTITLE2=Darius Rucker - Alright
TTITLE3=Reba McEntire - Strange
TTITLE4=Bucky Covington - I Want My Life Back
TTITLE5=Sarah Darling - Jack Of Hearts
TTITLE6=Joe Nichols - Believers (Single Version)
TTITLE7=Emily West - That Kind Of Happy
TTITLE8=Dirt Brothers - Hotty Toddy (EP Version)
TTITLE9=Mark Chesnutt - She Never Got Me Over You
TTITLE10=Krista Marie - Jeep Jeep
TTITLE11=Matt Stillwell - Rain (Radio Mix)
TTITLE12=Kate and Kacey - Dreaming Love @
TTITLE13=Parks - Where The Truth Lies
TTITLE14=Lance Miller - George Jones and Jesus
TTITLE15=Mac McAnally - You First @
TTITLE16=Billy McKnight and Mindy McCready - Sweeter
TTITLE17=Carla Williams - Every Word You're Thinking
EXTD=
EXTT0=
EXTT1=
EXTT2=
EXTT3=
EXTT4=
EXTT5=
EXTT6=
EXTT7=
EXTT8=
EXTT9=
EXTT10=
EXTT11=
EXTT12=
EXTT13=
EXTT14=
EXTT15=
EXTT16=
EXTT17=
PLAYORDER=
